<svg width="138" height="35" viewBox="0 0 138 35" fill="none" xmlns="http://www.w3.org/2000/svg">
<path d="M2.55 28V6.7H16.62V9.1H5.25V16.21H14.82V18.46H5.25V28H2.55Z" fill="#F8CB96"/>
<path d="M18.3902 23.47C18.3902 22.47 18.6702 21.61 19.2302 20.89C19.8102 20.15 20.6002 19.58 21.6002 19.18C22.6002 18.78 23.7602 18.58 25.0802 18.58C25.7802 18.58 26.5202 18.64 27.3002 18.76C28.0802 18.86 28.7702 19.02 29.3702 19.24V18.1C29.3702 16.9 29.0102 15.96 28.2902 15.28C27.5702 14.58 26.5502 14.23 25.2302 14.23C24.3702 14.23 23.5402 14.39 22.7402 14.71C21.9602 15.01 21.1302 15.45 20.2502 16.03L19.2902 14.17C20.3102 13.47 21.3302 12.95 22.3502 12.61C23.3702 12.25 24.4302 12.07 25.5302 12.07C27.5302 12.07 29.1102 12.63 30.2702 13.75C31.4302 14.85 32.0102 16.39 32.0102 18.37V25C32.0102 25.32 32.0702 25.56 32.1902 25.72C32.3302 25.86 32.5502 25.94 32.8502 25.96V28C32.5902 28.04 32.3602 28.07 32.1602 28.09C31.9802 28.11 31.8302 28.12 31.7102 28.12C31.0902 28.12 30.6202 27.95 30.3002 27.61C30.0002 27.27 29.8302 26.91 29.7902 26.53L29.7302 25.54C29.0502 26.42 28.1602 27.1 27.0602 27.58C25.9602 28.06 24.8702 28.3 23.7902 28.3C22.7502 28.3 21.8202 28.09 21.0002 27.67C20.1802 27.23 19.5402 26.65 19.0802 25.93C18.6202 25.19 18.3902 24.37 18.3902 23.47ZM28.5902 24.58C28.8302 24.3 29.0202 24.02 29.1602 23.74C29.3002 23.44 29.3702 23.19 29.3702 22.99V21.04C28.7502 20.8 28.1002 20.62 27.4202 20.5C26.7402 20.36 26.0702 20.29 25.4102 20.29C24.0702 20.29 22.9802 20.56 22.1402 21.1C21.3202 21.62 20.9102 22.34 20.9102 23.26C20.9102 23.76 21.0402 24.25 21.3002 24.73C21.5802 25.19 21.9802 25.57 22.5002 25.87C23.0402 26.17 23.7002 26.32 24.4802 26.32C25.3002 26.32 26.0802 26.16 26.8202 25.84C27.5602 25.5 28.1502 25.08 28.5902 24.58ZM41.6016 28.3C40.3016 28.3 39.0816 28.09 37.9416 27.67C36.8016 27.23 35.8216 26.58 35.0016 25.72L36.0216 23.86C36.9216 24.7 37.8216 25.3 38.7216 25.66C39.6216 26.02 40.5416 26.2 41.4816 26.2C42.5616 26.2 43.4416 26 44.1216 25.6C44.8016 25.18 45.1416 24.57 45.1416 23.77C45.1416 23.19 44.9616 22.76 44.6016 22.48C44.2616 22.2 43.7716 21.97 43.1316 21.79C42.4916 21.59 41.7316 21.37 40.8516 21.13C39.7716 20.81 38.8616 20.47 38.1216 20.11C37.3816 19.75 36.8216 19.3 36.4416 18.76C36.0616 18.22 35.8716 17.54 35.8716 16.72C35.8716 15.72 36.1316 14.88 36.6516 14.2C37.1716 13.5 37.8816 12.97 38.7816 12.61C39.7016 12.25 40.7416 12.07 41.9016 12.07C43.0616 12.07 44.1116 12.25 45.0516 12.61C45.9916 12.97 46.8016 13.5 47.4816 14.2L46.2816 16.03C45.6616 15.39 44.9816 14.92 44.2416 14.62C43.5016 14.3 42.6716 14.14 41.7516 14.14C41.2116 14.14 40.6816 14.21 40.1616 14.35C39.6416 14.47 39.2116 14.7 38.8716 15.04C38.5316 15.36 38.3616 15.82 38.3616 16.42C38.3616 16.92 38.4916 17.32 38.7516 17.62C39.0316 17.9 39.4316 18.14 39.9516 18.34C40.4916 18.54 41.1416 18.76 41.9016 19C43.0816 19.34 44.1016 19.68 44.9616 20.02C45.8416 20.36 46.5216 20.8 47.0016 21.34C47.4816 21.88 47.7216 22.63 47.7216 23.59C47.7216 25.07 47.1616 26.23 46.0416 27.07C44.9216 27.89 43.4416 28.3 41.6016 28.3ZM64.47 28H61.83V19.24C61.83 17.64 61.54 16.44 60.96 15.64C60.4 14.84 59.59 14.44 58.53 14.44C57.85 14.44 57.16 14.62 56.46 14.98C55.78 15.34 55.18 15.83 54.66 16.45C54.14 17.05 53.76 17.75 53.52 18.55V28H50.88V6.1H53.52V15.7C54.14 14.58 54.98 13.7 56.04 13.06C57.12 12.4 58.28 12.07 59.52 12.07C60.46 12.07 61.24 12.24 61.86 12.58C62.5 12.9 63.01 13.36 63.39 13.96C63.77 14.56 64.04 15.26 64.2 16.06C64.38 16.84 64.47 17.7 64.47 18.64V28ZM68.5753 28V12.34H71.2153V28H68.5753ZM68.5753 9.4V6.1H71.2153V9.4H68.5753ZM82.3294 28.3C81.1494 28.3 80.0794 28.09 79.1194 27.67C78.1594 27.23 77.3294 26.64 76.6294 25.9C75.9294 25.14 75.3894 24.27 75.0094 23.29C74.6294 22.31 74.4394 21.28 74.4394 20.2C74.4394 19.1 74.6294 18.06 75.0094 17.08C75.3894 16.1 75.9294 15.24 76.6294 14.5C77.3294 13.74 78.1594 13.15 79.1194 12.73C80.0994 12.29 81.1694 12.07 82.3294 12.07C83.5094 12.07 84.5794 12.29 85.5394 12.73C86.4994 13.15 87.3294 13.74 88.0294 14.5C88.7494 15.24 89.2994 16.1 89.6794 17.08C90.0594 18.06 90.2494 19.1 90.2494 20.2C90.2494 21.28 90.0594 22.31 89.6794 23.29C89.2994 24.27 88.7594 25.14 88.0594 25.9C87.3594 26.64 86.5194 27.23 85.5394 27.67C84.5794 28.09 83.5094 28.3 82.3294 28.3ZM77.1394 20.23C77.1394 21.31 77.3694 22.29 77.8294 23.17C78.3094 24.05 78.9394 24.75 79.7194 25.27C80.4994 25.77 81.3694 26.02 82.3294 26.02C83.2894 26.02 84.1594 25.76 84.9394 25.24C85.7394 24.72 86.3694 24.02 86.8294 23.14C87.3094 22.24 87.5494 21.25 87.5494 20.17C87.5494 19.09 87.3094 18.11 86.8294 17.23C86.3694 16.35 85.7394 15.65 84.9394 15.13C84.1594 14.61 83.2894 14.35 82.3294 14.35C81.3694 14.35 80.4994 14.62 79.7194 15.16C78.9394 15.68 78.3094 16.38 77.8294 17.26C77.3694 18.14 77.1394 19.13 77.1394 20.23ZM107.038 28H104.398V19.24C104.398 17.58 104.138 16.37 103.618 15.61C103.118 14.83 102.348 14.44 101.308 14.44C100.588 14.44 99.8684 14.62 99.1484 14.98C98.4484 15.34 97.8184 15.83 97.2584 16.45C96.7184 17.05 96.3284 17.75 96.0884 18.55V28H93.4484V12.34H95.8484V15.7C96.2684 14.96 96.8084 14.32 97.4684 13.78C98.1284 13.24 98.8784 12.82 99.7184 12.52C100.558 12.22 101.438 12.07 102.358 12.07C103.258 12.07 104.008 12.24 104.608 12.58C105.228 12.9 105.708 13.36 106.048 13.96C106.408 14.54 106.658 15.23 106.798 16.03C106.958 16.83 107.038 17.7 107.038 18.64V28Z" fill="black"/>
<circle cx="115" cy="30" r="5" fill="#F8CB96"/>
</svg>
